<svg width="20" height="21" viewBox="0 0 20 21" fill="none" xmlns="http://www.w3.org/2000/svg">
<path d="M1.74049 0.57312C1.07682 0.57312 0.538818 1.11112 0.538818 1.77479C0.538818 2.43845 1.07682 2.97645 1.74049 2.97645H3.20559L3.57277 4.44518C3.57662 4.46216 3.58083 4.47901 3.5854 4.49571L5.21634 11.0195L4.14376 12.092C2.62975 13.6061 3.70203 16.1948 5.84317 16.1948H16.1604C16.8241 16.1948 17.3621 15.6568 17.3621 14.9931C17.3621 14.3295 16.8241 13.7915 16.1604 13.7915L5.84317 13.7915L7.04484 12.5898H14.9588C15.414 12.5898 15.8301 12.3326 16.0336 11.9255L19.6386 4.71552C19.8249 4.34302 19.805 3.90064 19.586 3.54637C19.3671 3.1921 18.9803 2.97645 18.5638 2.97645H5.68288L5.30961 1.48334C5.17587 0.948397 4.69522 0.57312 4.14382 0.57312H1.74049Z" fill="white"/>
<path d="M17.3622 19.199C17.3622 20.1944 16.5551 21.0015 15.5597 21.0015C14.5642 21.0015 13.7572 20.1944 13.7572 19.199C13.7572 18.2035 14.5642 17.3965 15.5597 17.3965C16.5551 17.3965 17.3622 18.2035 17.3622 19.199Z" fill="white"/>
<path d="M5.94632 21.0015C6.94181 21.0015 7.74882 20.1944 7.74882 19.199C7.74882 18.2035 6.94181 17.3965 5.94632 17.3965C4.95083 17.3965 4.14382 18.2035 4.14382 19.199C4.14382 20.1944 4.95083 21.0015 5.94632 21.0015Z" fill="white"/>
</svg>
